<?xml version="1.0" encoding="UTF-8" standalone="no"?>
<svg
   xmlns:dc="http://purl.org/dc/elements/1.1/"
   xmlns:cc="http://creativecommons.org/ns#"
   xmlns:rdf="http://www.w3.org/1999/02/22-rdf-syntax-ns#"
   xmlns:svg="http://www.w3.org/2000/svg"
   xmlns="http://www.w3.org/2000/svg"
   xmlns:sodipodi="http://sodipodi.sourceforge.net/DTD/sodipodi-0.dtd"
   xmlns:inkscape="http://www.inkscape.org/namespaces/inkscape"
   width="210mm"
   height="297mm"
   viewBox="0 0 210 297"
   version="1.1"
   id="svg8"
   inkscape:version="1.0.2-2 (e86c870879, 2021-01-15)"
   sodipodi:docname="water.svg"
   inkscape:export-filename="D:\Users\Martinator 2.0\Documents\Unity Cloud\Deck Building Automation Game\Assets\Sprites\Water\water.png"
   inkscape:export-xdpi="96"
   inkscape:export-ydpi="96">
  <defs
     id="defs2" />
  <sodipodi:namedview
     id="base"
     pagecolor="#ffffff"
     bordercolor="#666666"
     borderopacity="1.0"
     inkscape:pageopacity="0.0"
     inkscape:pageshadow="2"
     inkscape:zoom="1.979899"
     inkscape:cx="351.02787"
     inkscape:cy="596.69545"
     inkscape:document-units="mm"
     inkscape:current-layer="g848"
     inkscape:document-rotation="0"
     showgrid="false"
     inkscape:window-width="2560"
     inkscape:window-height="1377"
     inkscape:window-x="1912"
     inkscape:window-y="-8"
     inkscape:window-maximized="1"
     inkscape:snap-object-midpoints="true"
     inkscape:snap-intersection-paths="false"
     inkscape:object-paths="true"
     inkscape:snap-bbox="true"
     inkscape:snap-others="true"
     inkscape:object-nodes="true"
     inkscape:snap-midpoints="true" />
  <metadata
     id="metadata5">
    <rdf:RDF>
      <cc:Work
         rdf:about="">
        <dc:format>image/svg+xml</dc:format>
        <dc:type
           rdf:resource="http://purl.org/dc/dcmitype/StillImage" />
        <dc:title />
      </cc:Work>
    </rdf:RDF>
  </metadata>
  <g
     inkscape:label="Layer 1"
     inkscape:groupmode="layer"
     id="layer1">
    <circle
       style="opacity:1;fill:#ffffff;stroke:#333333;stroke-width:19.5084;stroke-linejoin:round"
       id="path833"
       cx="105.05265"
       cy="135.87712"
       r="71.779449"
       inkscape:label="circle"
       inkscape:export-xdpi="96"
       inkscape:export-ydpi="96" />
    <g
       id="g848"
       transform="matrix(0.82848574,0.84635702,-0.82848574,0.84635702,129.92688,-58.127706)">
      <path
         id="path857"
         style="fill:#afdde9;stroke:#2c89a0;stroke-width:10;stroke-linecap:round;stroke-linejoin:round;stroke-miterlimit:4;stroke-dasharray:none"
         d="m 76.481041,106.4658 3.64e-4,25.65635 -3.66e-4,2.92363 a 27.119792,27.119792 0 0 0 0.0077,0.14288 27.119792,27.119792 0 0 0 0.01425,0.22472 27.119792,27.119792 0 0 0 0.01644,0.22473 27.119792,27.119792 0 0 0 0.01791,0.22472 27.119792,27.119792 0 0 0 0.01973,0.22436 27.119792,27.119792 0 0 0 0.02156,0.224 27.119792,27.119792 0 0 0 0.02375,0.22399 27.119792,27.119792 0 0 0 0.02521,0.224 27.119792,27.119792 0 0 0 0.02741,0.22326 27.119792,27.119792 0 0 0 0.02923,0.22363 27.119792,27.119792 0 0 0 0.03106,0.22327 27.119792,27.119792 0 0 0 0.03252,0.22253 27.119792,27.119792 0 0 0 0.03471,0.22253 27.119792,27.119792 0 0 0 0.03691,0.22254 27.119792,27.119792 0 0 0 0.03837,0.2218 27.119792,27.119792 0 0 0 0.04019,0.22144 27.119792,27.119792 0 0 0 0.04202,0.2218 27.119792,27.119792 0 0 0 0.04385,0.2207 27.119792,27.119792 0 0 0 0.04568,0.22034 27.119792,27.119792 0 0 0 0.04787,0.22034 27.119792,27.119792 0 0 0 0.04933,0.21961 27.119792,27.119792 0 0 0 0.05116,0.21925 27.119792,27.119792 0 0 0 0.05298,0.21888 27.119792,27.119792 0 0 0 0.05481,0.21851 27.119792,27.119792 0 0 0 0.05664,0.21815 27.119792,27.119792 0 0 0 0.05846,0.21778 27.119792,27.119792 0 0 0 0.06029,0.21669 27.119792,27.119792 0 0 0 0.06249,0.21669 27.119792,27.119792 0 0 0 0.06358,0.21632 27.119792,27.119792 0 0 0 0.06541,0.21522 27.119792,27.119792 0 0 0 0.06797,0.21486 27.119792,27.119792 0 0 0 0.06906,0.2145 27.119792,27.119792 0 0 0 0.07089,0.2134 27.119792,27.119792 0 0 0 0.07308,0.21339 27.119792,27.119792 0 0 0 0.07418,0.21231 27.119792,27.119792 0 0 0 0.07637,0.2123 27.119792,27.119792 0 0 0 0.0782,0.2112 27.119792,27.119792 0 0 0 0.07966,0.21048 27.119792,27.119792 0 0 0 0.08149,0.21011 27.119792,27.119792 0 0 0 0.08368,0.20937 27.119792,27.119792 0 0 0 0.08477,0.20829 27.119792,27.119792 0 0 0 0.08697,0.20828 27.119792,27.119792 0 0 0 0.08843,0.20682 27.119792,27.119792 0 0 0 0.09026,0.20645 27.119792,27.119792 0 0 0 0.09208,0.20536 27.119792,27.119792 0 0 0 0.09355,0.20536 27.119792,27.119792 0 0 0 0.09537,0.20354 27.119792,27.119792 0 0 0 0.09683,0.20353 27.119792,27.119792 0 0 0 0.09866,0.20243 27.119792,27.119792 0 0 0 0.100853,0.20171 27.119792,27.119792 0 0 0 0.10195,0.20061 27.119792,27.119792 0 0 0 0.103776,0.20024 27.119792,27.119792 0 0 0 0.105237,0.19878 27.119792,27.119792 0 0 0 0.107064,0.19842 27.119792,27.119792 0 0 0 0.108891,0.19732 27.119792,27.119792 0 0 0 0.109987,0.19622 27.119792,27.119792 0 0 0 0.112181,0.1955 27.119792,27.119792 0 0 0 0.113276,0.19439 27.119792,27.119792 0 0 0 0.11547,0.19367 27.119792,27.119792 0 0 0 0.116565,0.19257 27.119792,27.119792 0 0 0 0.11839,0.19147 27.119792,27.119792 0 0 0 0.120219,0.19111 27.119792,27.119792 0 0 0 0.121316,0.18928 27.119792,27.119792 0 0 0 0.123144,0.18892 27.119792,27.119792 0 0 0 0.124603,0.18745 27.119792,27.119792 0 0 0 0.12643,0.18636 27.119792,27.119792 0 0 0 0.127894,0.18563 27.119792,27.119792 0 0 0 0.128989,0.18453 27.119792,27.119792 0 0 0 0.130816,0.18343 27.119792,27.119792 0 0 0 0.132642,0.18234 27.119792,27.119792 0 0 0 0.13374,0.18124 27.119792,27.119792 0 0 0 0.1352,0.17978 27.119792,27.119792 0 0 0 0.137027,0.17869 27.119792,27.119792 0 0 0 0.138491,0.17795 27.119792,27.119792 0 0 0 0.139585,0.17686 27.119792,27.119792 0 0 0 0.141413,0.17503 27.119792,27.119792 0 0 0 0.142509,0.17466 27.119792,27.119792 0 0 0 0.144337,0.17284 27.119792,27.119792 0 0 0 0.145431,0.17174 27.119792,27.119792 0 0 0 0.14726,0.17065 27.119792,27.119792 0 0 0 0.148355,0.16954 27.119792,27.119792 0 0 0 0.149817,0.16809 27.119792,27.119792 0 0 0 0.151278,0.16736 27.119792,27.119792 0 0 0 0.152375,0.16553 27.119792,27.119792 0 0 0 0.154202,0.16443 27.119792,27.119792 0 0 0 0.154934,0.16297 27.119792,27.119792 0 0 0 0.156759,0.16188 27.119792,27.119792 0 0 0 0.158221,0.16042 27.119792,27.119792 0 0 0 0.159317,0.15931 27.119792,27.119792 0 0 0 0.160781,0.15786 27.119792,27.119792 0 0 0 0.162241,0.15639 27.119792,27.119792 0 0 0 0.162971,0.15493 27.119792,27.119792 0 0 0 0.164434,0.15421 27.119792,27.119792 0 0 0 0.16626,0.15237 27.119792,27.119792 0 0 0 0.166992,0.15091 27.119792,27.119792 0 0 0 0.168088,0.14982 27.119792,27.119792 0 0 0 0.169549,0.14836 27.119792,27.119792 0 0 0 0.17101,0.14689 27.119792,27.119792 0 0 0 0.17174,0.14543 27.119792,27.119792 0 0 0 0.173205,0.14397 27.119792,27.119792 0 0 0 0.174664,0.14251 27.119792,27.119792 0 0 0 0.175396,0.14105 27.119792,27.119792 0 0 0 0.176857,0.13959 27.119792,27.119792 0 0 0 0.177955,0.13849 27.119792,27.119792 0 0 0 0.179049,0.13666 27.119792,27.119792 0 0 0 0.180144,0.13483 27.119792,27.119792 0 0 0 0.181244,0.13374 27.119792,27.119792 0 0 0 0.182337,0.13191 27.119792,27.119792 0 0 0 0.183436,0.13082 27.119792,27.119792 0 0 0 0.184896,0.12935 27.119792,27.119792 0 0 0 0.185261,0.12753 27.119792,27.119792 0 0 0 0.186724,0.12607 27.119792,27.119792 0 0 0 0.187818,0.12424 27.119792,27.119792 0 0 0 0.188915,0.12314 27.119792,27.119792 0 0 0 0.189648,0.12095 27.119792,27.119792 0 0 0 0.190742,0.11985 27.119792,27.119792 0 0 0 0.191475,0.1184 27.119792,27.119792 0 0 0 0.1933,0.11656 27.119792,27.119792 0 0 0 0.193301,0.1151 27.119792,27.119792 0 0 0 0.194762,0.11365 27.119792,27.119792 0 0 0 0.195492,0.11144 27.119792,27.119792 0 0 0 0.196589,0.11036 27.119792,27.119792 0 0 0 0.197321,0.10816 27.119792,27.119792 0 0 0 0.198417,0.10706 27.119792,27.119792 0 0 0 0.199148,0.10487 27.119792,27.119792 0 0 0 0.200243,0.10378 27.119792,27.119792 0 0 0 0.200608,0.10195 27.119792,27.119792 0 0 0 0.201706,0.10012 27.119792,27.119792 0 0 0 0.2028,0.0983 27.119792,27.119792 0 0 0 0.203167,0.0972 27.119792,27.119792 0 0 0 0.204262,0.0946 27.119792,27.119792 0 0 0 0.204995,0.0939 27.119792,27.119792 0 0 0 0.205724,0.0917 27.119792,27.119792 0 0 0 0.206456,0.0895 27.119792,27.119792 0 0 0 0.207184,0.0888 27.119792,27.119792 0 0 0 0.207917,0.0866 27.119792,27.119792 0 0 0 0.208647,0.0844 27.119792,27.119792 0 0 0 0.209745,0.0833 27.119792,27.119792 0 0 0 0.209744,0.0811 27.119792,27.119792 0 0 0 0.210839,0.08 27.119792,27.119792 0 0 0 0.211206,0.0775 27.119792,27.119792 0 0 0 0.212303,0.0764 27.119792,27.119792 0 0 0 0.212303,0.0742 27.119792,27.119792 0 0 0 0.213032,0.0727 27.119792,27.119792 0 0 0 0.214128,0.0709 27.119792,27.119792 0 0 0 0.214494,0.0691 27.119792,27.119792 0 0 0 0.21486,0.0672 27.119792,27.119792 0 0 0 0.215225,0.0654 27.119792,27.119792 0 0 0 0.216321,0.0636 27.119792,27.119792 0 0 0 0.216686,0.0618 27.119792,27.119792 0 0 0 0.216688,0.0603 27.119792,27.119792 0 0 0 0.217783,0.0585 27.119792,27.119792 0 0 0 0.218514,0.0563 27.119792,27.119792 0 0 0 0.218147,0.0544 27.119792,27.119792 0 0 0 0.218879,0.053 27.119792,27.119792 0 0 0 0.21961,0.0508 27.119792,27.119792 0 0 0 0.21961,0.0493 27.119792,27.119792 0 0 0 0.22034,0.0471 27.119792,27.119792 0 0 0 0.220707,0.046 27.119792,27.119792 0 0 0 0.221073,0.0435 27.119792,27.119792 0 0 0 0.22107,0.042 27.119792,27.119792 0 0 0 0.221803,0.0398 27.119792,27.119792 0 0 0 0.221803,0.0384 27.119792,27.119792 0 0 0 0.222532,0.0362 27.119792,27.119792 0 0 0 0.222532,0.0347 27.119792,27.119792 0 0 0 0.2229,0.0322 27.119792,27.119792 0 0 0 0.22327,0.0311 27.119792,27.119792 0 0 0 0.223259,0.0289 27.119792,27.119792 0 0 0 0.22363,0.027 27.119792,27.119792 0 0 0 0.22399,0.0252 27.119792,27.119792 0 0 0 0.22363,0.0234 27.119792,27.119792 0 0 0 0.22436,0.0212 27.119792,27.119792 0 0 0 0.22436,0.0197 27.119792,27.119792 0 0 0 0.22473,0.0179 27.119792,27.119792 0 0 0 0.22472,0.0157 27.119792,27.119792 0 0 0 0.22473,0.0143 27.119792,27.119792 0 0 0 0.22473,0.012 27.119792,27.119792 0 0 0 0.22509,0.0102 27.119792,27.119792 0 0 0 0.22545,0.008 27.119792,27.119792 0 0 0 0.22509,0.007 27.119792,27.119792 0 0 0 0.22473,0.005 27.119792,27.119792 0 0 0 0.22546,0.003 27.119792,27.119792 0 0 0 0.22545,0.001 h 0.027 a 27.119792,27.119792 0 0 0 0.22546,-0.001 27.119792,27.119792 0 0 0 0.22509,-0.003 27.119792,27.119792 0 0 0 0.22509,-0.005 27.119792,27.119792 0 0 0 0.22509,-0.007 27.119792,27.119792 0 0 0 0.22509,-0.009 27.119792,27.119792 0 0 0 0.2251,-0.0102 27.119792,27.119792 0 0 0 0.22472,-0.0128 27.119792,27.119792 0 0 0 0.22473,-0.0143 27.119792,27.119792 0 0 0 0.22509,-0.0161 27.119792,27.119792 0 0 0 0.22436,-0.0183 27.119792,27.119792 0 0 0 0.22436,-0.0197 27.119792,27.119792 0 0 0 0.22399,-0.0216 27.119792,27.119792 0 0 0 0.22436,-0.0234 27.119792,27.119792 0 0 0 0.22363,-0.0256 27.119792,27.119792 0 0 0 0.22363,-0.0271 27.119792,27.119792 0 0 0 0.22363,-0.0292 27.119792,27.119792 0 0 0 0.22254,-0.0311 27.119792,27.119792 0 0 0 0.22289,-0.0329 27.119792,27.119792 0 0 0 0.22254,-0.0347 27.119792,27.119792 0 0 0 0.22289,-0.0365 27.119792,27.119792 0 0 0 0.22181,-0.0384 27.119792,27.119792 0 0 0 0.22144,-0.0402 27.119792,27.119792 0 0 0 0.22107,-0.042 27.119792,27.119792 0 0 0 0.22107,-0.0442 27.119792,27.119792 0 0 0 0.2207,-0.0453 27.119792,27.119792 0 0 0 0.22035,-0.0479 27.119792,27.119792 0 0 0 0.21961,-0.0493 27.119792,27.119792 0 0 0 0.21924,-0.0512 27.119792,27.119792 0 0 0 0.21888,-0.053 27.119792,27.119792 0 0 0 0.21851,-0.0548 27.119792,27.119792 0 0 0 0.21815,-0.0566 27.119792,27.119792 0 0 0 0.21742,-0.0588 27.119792,27.119792 0 0 0 0.21705,-0.0599 27.119792,27.119792 0 0 0 0.21632,-0.0621 27.119792,27.119792 0 0 0 0.21596,-0.0639 27.119792,27.119792 0 0 0 0.21559,-0.0658 27.119792,27.119792 0 0 0 0.21522,-0.0676 27.119792,27.119792 0 0 0 0.21413,-0.0694 27.119792,27.119792 0 0 0 0.21377,-0.0705 27.119792,27.119792 0 0 0 0.21339,-0.0731 27.119792,27.119792 0 0 0 0.21231,-0.0742 27.119792,27.119792 0 0 0 0.21193,-0.0767 27.119792,27.119792 0 0 0 0.21121,-0.0782 27.119792,27.119792 0 0 0 0.21047,-0.0797 27.119792,27.119792 0 0 0 0.21011,-0.0815 27.119792,27.119792 0 0 0 0.20938,-0.0837 27.119792,27.119792 0 0 0 0.20828,-0.0848 27.119792,27.119792 0 0 0 0.20792,-0.0866 27.119792,27.119792 0 0 0 0.20718,-0.0888 27.119792,27.119792 0 0 0 0.20646,-0.0903 27.119792,27.119792 0 0 0 0.20572,-0.0917 27.119792,27.119792 0 0 0 0.205,-0.0939 27.119792,27.119792 0 0 0 0.20389,-0.095 27.119792,27.119792 0 0 0 0.20317,-0.0972 27.119792,27.119792 0 0 0 0.20244,-0.0987 27.119792,27.119792 0 0 0 0.20207,-0.10049 27.119792,27.119792 0 0 0 0.20061,-0.10194 27.119792,27.119792 0 0 0 0.19987,-0.10415 27.119792,27.119792 0 0 0 0.19915,-0.10487 27.119792,27.119792 0 0 0 0.19805,-0.10743 27.119792,27.119792 0 0 0 0.19732,-0.10816 27.119792,27.119792 0 0 0 0.19623,-0.11072 27.119792,27.119792 0 0 0 0.19585,-0.11181 27.119792,27.119792 0 0 0 0.19404,-0.11364 27.119792,27.119792 0 0 0 0.19403,-0.11511 27.119792,27.119792 0 0 0 0.1922,-0.11693 27.119792,27.119792 0 0 0 0.19184,-0.11802 27.119792,27.119792 0 0 0 0.19038,-0.12022 27.119792,27.119792 0 0 0 0.19001,-0.12132 27.119792,27.119792 0 0 0 0.18855,-0.1235 27.119792,27.119792 0 0 0 0.18746,-0.12461 27.119792,27.119792 0 0 0 0.18672,-0.12606 27.119792,27.119792 0 0 0 0.18562,-0.1279 27.119792,27.119792 0 0 0 0.18417,-0.12935 27.119792,27.119792 0 0 0 0.18343,-0.13082 27.119792,27.119792 0 0 0 0.18234,-0.13264 27.119792,27.119792 0 0 0 0.18125,-0.13374 27.119792,27.119792 0 0 0 0.17978,-0.1352 27.119792,27.119792 0 0 0 0.17905,-0.13666 27.119792,27.119792 0 0 0 0.17795,-0.13849 27.119792,27.119792 0 0 0 0.17649,-0.13995 27.119792,27.119792 0 0 0 0.1754,-0.14105 27.119792,27.119792 0 0 0 0.1743,-0.14287 27.119792,27.119792 0 0 0 0.1732,-0.14398 27.119792,27.119792 0 0 0 0.17174,-0.14543 27.119792,27.119792 0 0 0 0.17065,-0.14726 27.119792,27.119792 0 0 0 0.16955,-0.14835 27.119792,27.119792 0 0 0 0.16808,-0.14982 27.119792,27.119792 0 0 0 0.16663,-0.15128 27.119792,27.119792 0 0 0 0.1659,-0.15274 27.119792,27.119792 0 0 0 0.16443,-0.1542 27.119792,27.119792 0 0 0 0.16297,-0.15493 27.119792,27.119792 0 0 0 0.16188,-0.15676 27.119792,27.119792 0 0 0 0.16041,-0.15822 27.119792,27.119792 0 0 0 0.15932,-0.15932 27.119792,27.119792 0 0 0 0.15785,-0.16078 27.119792,27.119792 0 0 0 0.15676,-0.16188 27.119792,27.119792 0 0 0 0.15494,-0.16297 27.119792,27.119792 0 0 0 0.15383,-0.1648 27.119792,27.119792 0 0 0 0.15274,-0.16589 27.119792,27.119792 0 0 0 0.15092,-0.167 27.119792,27.119792 0 0 0 0.14945,-0.16845 27.119792,27.119792 0 0 0 0.14835,-0.16955 27.119792,27.119792 0 0 0 0.1469,-0.17101 27.119792,27.119792 0 0 0 0.14543,-0.17174 27.119792,27.119792 0 0 0 0.14397,-0.1732 27.119792,27.119792 0 0 0 0.14251,-0.17467 27.119792,27.119792 0 0 0 0.14105,-0.17539 27.119792,27.119792 0 0 0 0.13958,-0.17686 27.119792,27.119792 0 0 0 0.13813,-0.17759 27.119792,27.119792 0 0 0 0.13666,-0.17905 27.119792,27.119792 0 0 0 0.13556,-0.18014 27.119792,27.119792 0 0 0 0.13338,-0.18161 27.119792,27.119792 0 0 0 0.13228,-0.18197 27.119792,27.119792 0 0 0 0.13044,-0.1838 27.119792,27.119792 0 0 0 0.12936,-0.18417 27.119792,27.119792 0 0 0 0.12753,-0.18599 27.119792,27.119792 0 0 0 0.12606,-0.18672 27.119792,27.119792 0 0 0 0.12461,-0.18746 27.119792,27.119792 0 0 0 0.12314,-0.18891 27.119792,27.119792 0 0 0 0.12095,-0.18965 27.119792,27.119792 0 0 0 0.11985,-0.19074 27.119792,27.119792 0 0 0 0.11803,-0.19184 27.119792,27.119792 0 0 0 0.11693,-0.19294 27.119792,27.119792 0 0 0 0.11474,-0.19366 27.119792,27.119792 0 0 0 0.11327,-0.1944 27.119792,27.119792 0 0 0 0.11182,-0.19586 27.119792,27.119792 0 0 0 0.11035,-0.19659 27.119792,27.119792 0 0 0 0.10816,-0.19732 27.119792,27.119792 0 0 0 0.10707,-0.19841 27.119792,27.119792 0 0 0 0.10523,-0.19879 27.119792,27.119792 0 0 0 0.10378,-0.20024 27.119792,27.119792 0 0 0 0.10158,-0.20097 27.119792,27.119792 0 0 0 0.10012,-0.20171 27.119792,27.119792 0 0 0 0.0987,-0.20243 27.119792,27.119792 0 0 0 0.0968,-0.20354 27.119792,27.119792 0 0 0 0.095,-0.20389 27.119792,27.119792 0 0 0 0.0935,-0.20536 27.119792,27.119792 0 0 0 0.0917,-0.20573 27.119792,27.119792 0 0 0 0.0899,-0.20609 27.119792,27.119792 0 0 0 0.0884,-0.20755 27.119792,27.119792 0 0 0 0.0866,-0.20792 27.119792,27.119792 0 0 0 0.0848,-0.20828 27.119792,27.119792 0 0 0 0.0833,-0.20974 27.119792,27.119792 0 0 0 0.0811,-0.20975 27.119792,27.119792 0 0 0 0.08,-0.21084 27.119792,27.119792 0 0 0 0.0775,-0.2112 27.119792,27.119792 0 0 0 0.0764,-0.2123 27.119792,27.119792 0 0 0 0.0742,-0.21231 27.119792,27.119792 0 0 0 0.0724,-0.21339 27.119792,27.119792 0 0 0 0.0713,-0.21377 27.119792,27.119792 0 0 0 0.0691,-0.21449 27.119792,27.119792 0 0 0 0.0669,-0.21523 27.119792,27.119792 0 0 0 0.0654,-0.21522 27.119792,27.119792 0 0 0 0.0639,-0.21596 27.119792,27.119792 0 0 0 0.0618,-0.21668 27.119792,27.119792 0 0 0 0.0599,-0.21706 27.119792,27.119792 0 0 0 0.0585,-0.21778 27.119792,27.119792 0 0 0 0.0563,-0.21778 27.119792,27.119792 0 0 0 0.0548,-0.21852 27.119792,27.119792 0 0 0 0.0526,-0.21924 27.119792,27.119792 0 0 0 0.0512,-0.21925 27.119792,27.119792 0 0 0 0.049,-0.21997 27.119792,27.119792 0 0 0 0.0475,-0.21998 27.119792,27.119792 0 0 0 0.0453,-0.2207 27.119792,27.119792 0 0 0 0.0442,-0.22107 27.119792,27.119792 0 0 0 0.0417,-0.22144 27.119792,27.119792 0 0 0 0.0402,-0.22144 27.119792,27.119792 0 0 0 0.038,-0.22217 27.119792,27.119792 0 0 0 0.0365,-0.22216 27.119792,27.119792 0 0 0 0.034,-0.22254 27.119792,27.119792 0 0 0 0.0329,-0.22289 27.119792,27.119792 0 0 0 0.0307,-0.2229 27.119792,27.119792 0 0 0 0.0289,-0.224 27.119792,27.119792 0 0 0 0.0274,-0.22326 27.119792,27.119792 0 0 0 0.0249,-0.22363 27.119792,27.119792 0 0 0 0.0234,-0.22436 27.119792,27.119792 0 0 0 0.0215,-0.224 27.119792,27.119792 0 0 0 0.0194,-0.22472 27.119792,27.119792 0 0 0 0.0183,-0.22436 27.119792,27.119792 0 0 0 0.0157,-0.22473 27.119792,27.119792 0 0 0 0.0139,-0.22509 27.119792,27.119792 0 0 0 0.007,-0.12278 v -2.90352 a 27.119792,27.119792 0 0 0 -0.008,-0.15238 27.119792,27.119792 0 0 0 -0.0142,-0.22473 27.119792,27.119792 0 0 0 -0.0157,-0.22472 27.119792,27.119792 0 0 0 -0.0183,-0.22436 27.119792,27.119792 0 0 0 -0.0197,-0.22436 27.119792,27.119792 0 0 0 -0.0219,-0.22436 27.119792,27.119792 0 0 0 -0.023,-0.224 27.119792,27.119792 0 0 0 -0.0259,-0.22399 27.119792,27.119792 0 0 0 -0.027,-0.22363 27.119792,27.119792 0 0 0 -0.0292,-0.2229 27.119792,27.119792 0 0 0 -0.0311,-0.22326 27.119792,27.119792 0 0 0 -0.0329,-0.2229 27.119792,27.119792 0 0 0 -0.0347,-0.22254 27.119792,27.119792 0 0 0 -0.0365,-0.22216 27.119792,27.119792 0 0 0 -0.038,-0.22217 27.119792,27.119792 0 0 0 -0.0406,-0.2218 27.119792,27.119792 0 0 0 -0.042,-0.22107 27.119792,27.119792 0 0 0 -0.0438,-0.22071 27.119792,27.119792 0 0 0 -0.046,-0.22071 27.119792,27.119792 0 0 0 -0.0471,-0.22034 27.119792,27.119792 0 0 0 -0.0493,-0.21961 27.119792,27.119792 0 0 0 -0.0515,-0.21961 27.119792,27.119792 0 0 0 -0.053,-0.21888 27.119792,27.119792 0 0 0 -0.0548,-0.21851 27.119792,27.119792 0 0 0 -0.057,-0.21778 27.119792,27.119792 0 0 0 -0.0581,-0.21742 27.119792,27.119792 0 0 0 -0.0603,-0.21742 27.119792,27.119792 0 0 0 -0.0621,-0.21632 27.119792,27.119792 0 0 0 -0.064,-0.21596 27.119792,27.119792 0 0 0 -0.0658,-0.21559 27.119792,27.119792 0 0 0 -0.0672,-0.21486 27.119792,27.119792 0 0 0 -0.0694,-0.21412 27.119792,27.119792 0 0 0 -0.0709,-0.21413 27.119792,27.119792 0 0 0 -0.0727,-0.21304 27.119792,27.119792 0 0 0 -0.0749,-0.2123 27.119792,27.119792 0 0 0 -0.076,-0.21193 27.119792,27.119792 0 0 0 -0.0782,-0.21121 27.119792,27.119792 0 0 0 -0.08,-0.21084 27.119792,27.119792 0 0 0 -0.0815,-0.21011 27.119792,27.119792 0 0 0 -0.0833,-0.20901 27.119792,27.119792 0 0 0 -0.0851,-0.20865 27.119792,27.119792 0 0 0 -0.0866,-0.20792 27.119792,27.119792 0 0 0 -0.0888,-0.20718 27.119792,27.119792 0 0 0 -0.0899,-0.20609 27.119792,27.119792 0 0 0 -0.0921,-0.20609 27.119792,27.119792 0 0 0 -0.0935,-0.20463 27.119792,27.119792 0 0 0 -0.0954,-0.20426 27.119792,27.119792 0 0 0 -0.0972,-0.20317 27.119792,27.119792 0 0 0 -0.0987,-0.20244 27.119792,27.119792 0 0 0 -0.10013,-0.2017 27.119792,27.119792 0 0 0 -0.10231,-0.20097 27.119792,27.119792 0 0 0 -0.10377,-0.19952 27.119792,27.119792 0 0 0 -0.10524,-0.19951 27.119792,27.119792 0 0 0 -0.10707,-0.19769 27.119792,27.119792 0 0 0 -0.10852,-0.19768 27.119792,27.119792 0 0 0 -0.11072,-0.19622 27.119792,27.119792 0 0 0 -0.11145,-0.1955 27.119792,27.119792 0 0 0 -0.11401,-0.1944 27.119792,27.119792 0 0 0 -0.11474,-0.19366 27.119792,27.119792 0 0 0 -0.11729,-0.19257 27.119792,27.119792 0 0 0 -0.11803,-0.19184 27.119792,27.119792 0 0 0 -0.12022,-0.19038 27.119792,27.119792 0 0 0 -0.12131,-0.19001 27.119792,27.119792 0 0 0 -0.12314,-0.18818 27.119792,27.119792 0 0 0 -0.12498,-0.18782 27.119792,27.119792 0 0 0 -0.12606,-0.18673 27.119792,27.119792 0 0 0 -0.12753,-0.18526 27.119792,27.119792 0 0 0 -0.12972,-0.18453 27.119792,27.119792 0 0 0 -0.13081,-0.18343 27.119792,27.119792 0 0 0 -0.13228,-0.18198 27.119792,27.119792 0 0 0 -0.13374,-0.18124 27.119792,27.119792 0 0 0 -0.13557,-0.18015 27.119792,27.119792 0 0 0 -0.13666,-0.17904 27.119792,27.119792 0 0 0 -0.13812,-0.17759 27.119792,27.119792 0 0 0 -0.13995,-0.17649 27.119792,27.119792 0 0 0 -0.14142,-0.17577 27.119792,27.119792 0 0 0 -0.14251,-0.17393 27.119792,27.119792 0 0 0 -0.14397,-0.1732 27.119792,27.119792 0 0 0 -0.14616,-0.17174 27.119792,27.119792 0 0 0 -0.14689,-0.17102 27.119792,27.119792 0 0 0 -0.14799,-0.16918 27.119792,27.119792 0 0 0 -0.15019,-0.16845 27.119792,27.119792 0 0 0 -0.15127,-0.16663 27.119792,27.119792 0 0 0 -0.15238,-0.16553 27.119792,27.119792 0 0 0 -0.1542,-0.16443 27.119792,27.119792 0 0 0 -0.1553,-0.16334 27.119792,27.119792 0 0 0 -0.15676,-0.16187 27.119792,27.119792 0 0 0 -0.15822,-0.16042 27.119792,27.119792 0 0 0 -0.15895,-0.15895 27.119792,27.119792 0 0 0 -0.16078,-0.15786 27.119792,27.119792 0 0 0 -0.16188,-0.15676 27.119792,27.119792 0 0 0 -0.16333,-0.15529 27.119792,27.119792 0 0 0 -0.1648,-0.15384 27.119792,27.119792 0 0 0 -0.16553,-0.15237 27.119792,27.119792 0 0 0 -0.16699,-0.15092 27.119792,27.119792 0 0 0 -0.16882,-0.14982 27.119792,27.119792 0 0 0 -0.16919,-0.14799 27.119792,27.119792 0 0 0 -0.17101,-0.14689 27.119792,27.119792 0 0 0 -0.17174,-0.14543 27.119792,27.119792 0 0 0 -0.17357,-0.14434 27.119792,27.119792 0 0 0 -0.1743,-0.14214 27.119792,27.119792 0 0 0 -0.17576,-0.14141 27.119792,27.119792 0 0 0 -0.17649,-0.13922 27.119792,27.119792 0 0 0 -0.17795,-0.13849 27.119792,27.119792 0 0 0 -0.17905,-0.13667 27.119792,27.119792 0 0 0 -0.18015,-0.13483 27.119792,27.119792 0 0 0 -0.18124,-0.13374 27.119792,27.119792 0 0 0 -0.18234,-0.13264 27.119792,27.119792 0 0 0 -0.1838,-0.13045 27.119792,27.119792 0 0 0 -0.18453,-0.12899 27.119792,27.119792 0 0 0 -0.18563,-0.1279 27.119792,27.119792 0 0 0 -0.18636,-0.1257 27.119792,27.119792 0 0 0 -0.18782,-0.12496 27.119792,27.119792 0 0 0 -0.18891,-0.12242 27.119792,27.119792 0 0 0 -0.18965,-0.12168 27.119792,27.119792 0 0 0 -0.19074,-0.11985 27.119792,27.119792 0 0 0 -0.19184,-0.11803 27.119792,27.119792 0 0 0 -0.19257,-0.11656 27.119792,27.119792 0 0 0 -0.19403,-0.11511 27.119792,27.119792 0 0 0 -0.1944,-0.11327 27.119792,27.119792 0 0 0 -0.19586,-0.11182 27.119792,27.119792 0 0 0 -0.19622,-0.10998 27.119792,27.119792 0 0 0 -0.19769,-0.10853 27.119792,27.119792 0 0 0 -0.19805,-0.1067 27.119792,27.119792 0 0 0 -0.19914,-0.1056 27.119792,27.119792 0 0 0 -0.19988,-0.10341 27.119792,27.119792 0 0 0 -0.20097,-0.10158 27.119792,27.119792 0 0 0 -0.20171,-0.10013 27.119792,27.119792 0 0 0 -0.20244,-0.0987 27.119792,27.119792 0 0 0 -0.20353,-0.0968 27.119792,27.119792 0 0 0 -0.20426,-0.0954 27.119792,27.119792 0 0 0 -0.20499,-0.0932 27.119792,27.119792 0 0 0 -0.20573,-0.0917 27.119792,27.119792 0 0 0 -0.20645,-0.0902 27.119792,27.119792 0 0 0 -0.20719,-0.0881 27.119792,27.119792 0 0 0 -0.20792,-0.0866 27.119792,27.119792 0 0 0 -0.20864,-0.0851 27.119792,27.119792 0 0 0 -0.20938,-0.0829 27.119792,27.119792 0 0 0 -0.21011,-0.0815 27.119792,27.119792 0 0 0 -0.21084,-0.0793 27.119792,27.119792 0 0 0 -0.21121,-0.0782 27.119792,27.119792 0 0 0 -0.21193,-0.076 27.119792,27.119792 0 0 0 -0.21267,-0.0745 27.119792,27.119792 0 0 0 -0.2134,-0.0724 27.119792,27.119792 0 0 0 -0.21376,-0.0705 27.119792,27.119792 0 0 0 -0.21413,-0.0694 27.119792,27.119792 0 0 0 -0.21523,-0.0669 27.119792,27.119792 0 0 0 -0.21559,-0.0658 27.119792,27.119792 0 0 0 -0.21595,-0.064 27.119792,27.119792 0 0 0 -0.21669,-0.0618 27.119792,27.119792 0 0 0 -0.21705,-0.0599 27.119792,27.119792 0 0 0 -0.21742,-0.0581 27.119792,27.119792 0 0 0 -0.21815,-0.0566 27.119792,27.119792 0 0 0 -0.21851,-0.0548 27.119792,27.119792 0 0 0 -0.21925,-0.0526 27.119792,27.119792 0 0 0 -0.21924,-0.0512 27.119792,27.119792 0 0 0 -0.21998,-0.049 27.119792,27.119792 0 0 0 -0.21997,-0.0475 27.119792,27.119792 0 0 0 -0.22071,-0.0453 27.119792,27.119792 0 0 0 -0.2207,-0.0438 27.119792,27.119792 0 0 0 -0.22144,-0.0417 27.119792,27.119792 0 0 0 -0.2218,-0.0398 27.119792,27.119792 0 0 0 -0.22181,-0.0384 27.119792,27.119792 0 0 0 -0.22253,-0.0362 27.119792,27.119792 0 0 0 -0.22253,-0.0347 27.119792,27.119792 0 0 0 -0.2229,-0.0329 27.119792,27.119792 0 0 0 -0.22326,-0.0303 27.119792,27.119792 0 0 0 -0.22327,-0.0289 27.119792,27.119792 0 0 0 -0.22363,-0.027 27.119792,27.119792 0 0 0 -0.22363,-0.0256 27.119792,27.119792 0 0 0 -0.22436,-0.0234 27.119792,27.119792 0 0 0 -0.22399,-0.0215 27.119792,27.119792 0 0 0 -0.22473,-0.0194 27.119792,27.119792 0 0 0 -0.22436,-0.0175 27.119792,27.119792 0 0 0 -0.22436,-0.0161 27.119792,27.119792 0 0 0 -0.22509,-0.0139 27.119792,27.119792 0 0 0 -0.22509,-0.0124 27.119792,27.119792 0 0 0 -0.22509,-0.0102 27.119792,27.119792 0 0 0 -0.22473,-0.008 27.119792,27.119792 0 0 0 -0.22509,-0.007 27.119792,27.119792 0 0 0 -0.22545,-0.005 27.119792,27.119792 0 0 0 -0.22509,-0.003 27.119792,27.119792 0 0 0 -0.2251,-7.4e-4 l -0.0274,3.7e-4 z" />
      <path
         style="fill:none;stroke:#ffffff;stroke-width:5;stroke-linecap:round;stroke-linejoin:miter;stroke-miterlimit:4;stroke-dasharray:none;stroke-opacity:1"
         d="m 91.649727,141.63707 c 0,0 -5.483961,-9.45699 2.169865,-14.92818"
         id="path869"
         sodipodi:nodetypes="cc" />
    </g>
  </g>
</svg>
